<svg xmlns="http://www.w3.org/2000/svg" viewBox="0 0 1900 871" width="1900" height="871" aria-label="Vivre logo vector">

<path d="M692 353 L691 354 L692 355 L708 355 L709 356 L715 356 L719 359 L720 359 L727 366 L730 372 L731 378 L732 379 L732 388 L733 389 L733 683 L732 684 L732 698 L731 699 L731 704 L730 705 L729 710 L727 713 L727 715 L726 717 L719 724 L713 727 L711 727 L710 728 L703 728 L700 730 L697 730 L695 731 L699 731 L700 732 L704 732 L705 733 L745 733 L746 732 L757 732 L758 733 L799 733 L800 732 L807 732 L808 731 L807 730 L803 730 L802 729 L799 729 L798 728 L793 728 L792 727 L790 727 L786 725 L778 717 L777 714 L775 712 L774 706 L773 705 L773 701 L771 697 L771 685 L770 684 L770 348 L742 348 L741 349 L723 349 L722 350 L711 350 L707 352 L696 352 L695 353 Z" fill="#000"/>
<path d="M1580 345 L1579 346 L1568 346 L1567 347 L1564 347 L1563 348 L1557 348 L1556 349 L1546 350 L1543 352 L1540 352 L1539 353 L1536 353 L1535 354 L1529 355 L1526 357 L1523 357 L1516 361 L1514 361 L1511 363 L1509 363 L1507 365 L1503 366 L1501 368 L1490 373 L1488 375 L1481 379 L1477 383 L1474 384 L1466 392 L1465 392 L1443 415 L1443 416 L1435 426 L1432 432 L1430 434 L1429 437 L1427 439 L1421 451 L1421 453 L1419 455 L1419 457 L1417 460 L1417 462 L1415 465 L1415 467 L1414 468 L1414 470 L1412 474 L1412 478 L1410 481 L1409 489 L1408 490 L1408 493 L1406 496 L1406 501 L1405 502 L1404 518 L1403 519 L1403 523 L1402 524 L1402 532 L1401 533 L1401 554 L1402 555 L1402 561 L1403 562 L1403 568 L1404 569 L1404 580 L1405 581 L1405 588 L1406 589 L1406 593 L1408 596 L1408 600 L1410 604 L1410 607 L1413 613 L1414 619 L1416 622 L1416 624 L1418 627 L1418 629 L1422 636 L1422 638 L1424 642 L1426 644 L1427 647 L1429 649 L1431 654 L1434 657 L1435 660 L1437 662 L1439 666 L1442 669 L1444 673 L1448 677 L1448 678 L1464 694 L1465 694 L1473 701 L1477 703 L1480 706 L1481 706 L1489 712 L1503 719 L1505 721 L1510 722 L1522 728 L1525 728 L1529 730 L1532 730 L1534 732 L1537 732 L1538 733 L1541 733 L1542 734 L1546 734 L1547 735 L1551 735 L1555 737 L1561 737 L1562 738 L1573 738 L1574 739 L1604 739 L1605 738 L1615 738 L1616 737 L1621 737 L1625 735 L1630 735 L1631 734 L1638 733 L1644 730 L1651 729 L1654 727 L1656 727 L1659 725 L1661 725 L1670 720 L1672 720 L1674 718 L1683 714 L1685 712 L1689 710 L1692 707 L1696 705 L1699 702 L1700 702 L1703 699 L1704 699 L1713 690 L1714 690 L1715 688 L1717 687 L1717 686 L1732 670 L1732 669 L1735 666 L1738 660 L1743 654 L1758 624 L1758 622 L1760 618 L1760 615 L1761 614 L1761 611 L1763 608 L1763 604 L1764 603 L1765 594 L1767 590 L1767 584 L1768 583 L1768 573 L1769 572 L1769 558 L1768 557 L1768 548 L1767 547 L1767 542 L1766 541 L1765 537 L1760 533 L1757 535 L1758 537 L1758 540 L1760 544 L1760 547 L1761 548 L1761 552 L1762 553 L1762 562 L1764 566 L1764 576 L1762 580 L1762 589 L1761 590 L1761 595 L1760 596 L1760 600 L1758 604 L1758 607 L1756 611 L1756 614 L1753 620 L1753 622 L1751 625 L1751 627 L1749 629 L1749 631 L1747 633 L1747 635 L1745 637 L1743 642 L1741 644 L1737 651 L1733 655 L1732 658 L1725 665 L1725 666 L1723 668 L1722 668 L1711 679 L1707 681 L1699 688 L1694 690 L1689 694 L1683 697 L1681 697 L1674 701 L1669 702 L1666 704 L1664 704 L1663 705 L1661 705 L1660 706 L1658 706 L1654 708 L1651 708 L1650 709 L1646 709 L1645 710 L1639 710 L1638 711 L1635 711 L1634 712 L1628 712 L1627 713 L1587 713 L1586 712 L1581 712 L1577 710 L1572 710 L1571 709 L1564 708 L1561 706 L1555 705 L1552 703 L1550 703 L1547 701 L1545 701 L1538 697 L1536 697 L1532 694 L1529 693 L1527 691 L1524 690 L1522 688 L1521 688 L1519 686 L1512 682 L1508 678 L1507 678 L1487 659 L1487 658 L1478 648 L1477 645 L1474 642 L1474 641 L1470 636 L1469 633 L1465 628 L1455 608 L1455 606 L1452 600 L1451 594 L1450 593 L1450 591 L1448 588 L1448 585 L1447 584 L1446 574 L1445 573 L1445 571 L1444 570 L1444 566 L1443 565 L1443 558 L1442 557 L1442 550 L1441 549 L1441 540 L1440 539 L1440 521 L1441 520 L1441 508 L1442 507 L1442 500 L1443 499 L1443 493 L1444 492 L1444 488 L1446 484 L1447 473 L1448 472 L1448 469 L1451 463 L1452 457 L1454 454 L1455 449 L1457 446 L1457 444 L1467 424 L1469 422 L1537 422 L1538 421 L1755 421 L1756 420 L1752 411 L1750 409 L1748 405 L1745 402 L1743 398 L1738 393 L1738 392 L1721 376 L1718 375 L1715 372 L1712 371 L1710 369 L1702 365 L1700 363 L1695 362 L1690 359 L1688 359 L1685 357 L1682 357 L1681 356 L1679 356 L1675 354 L1672 354 L1671 353 L1668 353 L1667 352 L1663 352 L1662 351 L1656 350 L1655 349 L1642 348 L1641 347 L1638 347 L1637 346 L1628 346 L1627 345 Z" fill="#000"/>
<path d="M921 211 L919 211 L916 214 L914 218 L914 223 L917 227 L919 225 L920 221 L921 220 Z" fill="#000"/>
<path d="M1144 209 L1146 221 L1150 226 L1150 227 L1151 228 L1153 228 L1153 219 L1152 218 L1152 216 L1148 211 Z" fill="#000"/>
<path d="M740 198 L739 199 L737 199 L736 200 L732 200 L729 202 L725 203 L723 205 L722 205 L714 213 L710 221 L710 226 L709 227 L709 235 L710 236 L710 241 L711 242 L712 248 L715 252 L715 253 L721 259 L731 264 L734 264 L735 265 L750 265 L751 264 L755 264 L756 263 L758 263 L762 260 L765 259 L768 256 L768 255 L770 253 L774 246 L774 244 L775 243 L775 238 L777 234 L777 229 L775 225 L775 221 L774 220 L774 218 L771 212 L764 205 L763 205 L759 202 L757 202 L753 200 L750 200 L746 198 Z" fill="#000"/>
<path d="M132 182 L131 183 L136 186 L140 186 L141 187 L147 188 L150 190 L152 190 L158 193 L160 195 L164 197 L175 208 L175 209 L179 213 L179 214 L182 217 L183 220 L187 225 L191 233 L193 235 L203 255 L203 257 L205 259 L207 263 L207 265 L215 280 L215 282 L223 297 L223 299 L233 318 L233 320 L236 324 L236 326 L242 337 L242 339 L244 343 L246 345 L246 347 L250 354 L250 356 L258 371 L258 373 L260 375 L262 379 L262 381 L267 390 L267 392 L280 417 L280 419 L286 430 L286 432 L288 434 L288 436 L294 447 L294 449 L296 451 L298 455 L298 457 L301 461 L301 463 L315 491 L315 493 L324 510 L324 512 L333 529 L333 531 L336 535 L336 537 L341 546 L341 548 L343 550 L344 554 L353 571 L353 573 L363 592 L363 594 L366 598 L366 600 L368 603 L368 605 L370 607 L372 611 L372 613 L374 615 L375 619 L380 628 L380 630 L382 634 L384 636 L384 638 L389 647 L389 649 L392 653 L392 655 L400 670 L400 672 L407 685 L407 687 L410 691 L410 693 L424 721 L424 723 L426 725 L432 738 L434 740 L435 740 L440 730 L440 728 L443 724 L443 722 L449 710 L449 708 L452 703 L452 701 L457 692 L458 687 L466 671 L466 669 L471 659 L471 657 L474 652 L474 650 L482 634 L482 632 L484 629 L484 627 L487 623 L488 618 L492 611 L493 606 L497 599 L497 597 L499 595 L499 593 L501 590 L501 588 L505 581 L505 579 L509 572 L509 570 L516 556 L516 554 L518 551 L518 549 L522 542 L523 537 L525 535 L525 533 L527 530 L527 528 L531 521 L531 519 L539 503 L540 498 L542 496 L542 494 L544 491 L544 489 L548 482 L548 480 L552 473 L552 471 L556 464 L556 462 L561 453 L561 451 L565 443 L565 441 L574 423 L575 418 L579 411 L579 409 L587 393 L588 388 L596 372 L597 367 L604 354 L605 349 L609 342 L609 340 L612 335 L612 333 L614 330 L614 328 L622 312 L622 310 L625 305 L625 303 L630 294 L631 289 L635 282 L636 277 L644 262 L644 260 L647 256 L647 254 L649 252 L652 245 L656 240 L660 232 L665 226 L667 222 L674 214 L674 213 L691 196 L692 196 L695 193 L704 188 L712 186 L718 183 L718 182 L716 182 L715 183 L586 183 L586 184 L588 184 L592 186 L600 186 L601 187 L610 188 L615 191 L617 191 L621 194 L622 194 L631 203 L632 206 L634 208 L636 212 L637 218 L639 221 L639 225 L640 226 L640 246 L639 247 L639 252 L637 256 L636 264 L633 270 L631 279 L628 284 L628 286 L625 292 L625 294 L623 297 L623 299 L619 306 L618 311 L614 318 L614 320 L606 336 L605 341 L602 345 L601 350 L597 357 L597 359 L589 375 L588 380 L584 387 L583 392 L580 396 L579 401 L576 405 L575 410 L571 417 L571 419 L563 435 L563 437 L561 440 L561 442 L559 444 L558 449 L550 465 L550 467 L548 470 L548 472 L546 474 L545 479 L541 486 L541 488 L536 497 L536 499 L533 504 L532 509 L527 518 L527 520 L520 534 L520 536 L515 546 L515 548 L510 557 L509 562 L505 569 L505 571 L501 578 L501 580 L493 596 L492 601 L489 605 L488 610 L480 626 L479 631 L477 633 L476 637 L472 644 L472 646 L469 651 L469 653 L463 665 L462 670 L460 672 L459 676 L453 687 L451 687 L449 685 L447 681 L447 679 L444 674 L444 672 L437 659 L437 657 L430 644 L430 642 L428 640 L428 638 L422 627 L422 625 L412 606 L412 604 L409 600 L409 598 L405 591 L405 589 L397 574 L397 572 L389 557 L389 555 L387 553 L387 551 L371 519 L371 517 L365 506 L365 504 L362 500 L362 498 L355 485 L355 483 L349 472 L349 470 L347 466 L345 464 L345 462 L343 459 L343 457 L340 453 L340 451 L335 442 L335 440 L332 436 L332 434 L325 421 L325 419 L322 415 L322 413 L314 398 L314 396 L308 385 L308 383 L306 381 L306 379 L300 368 L300 366 L298 364 L296 360 L296 358 L292 351 L292 349 L285 336 L285 334 L278 321 L278 319 L269 302 L269 300 L267 298 L265 294 L265 292 L261 285 L261 283 L259 281 L256 275 L256 273 L249 260 L249 258 L243 247 L243 245 L240 241 L239 236 L237 234 L237 232 L235 229 L234 224 L232 221 L232 219 L231 218 L231 216 L230 215 L230 213 L228 209 L228 202 L231 196 L236 191 L242 188 L254 186 L258 183 L257 182 L255 182 L254 183 L136 183 L135 182 Z" fill="#000"/>
<path d="M782 352 L783 353 L787 353 L791 355 L802 356 L806 359 L809 360 L822 373 L822 374 L830 385 L863 451 L863 453 L865 455 L871 467 L871 469 L873 471 L875 475 L875 477 L880 485 L880 487 L892 510 L892 512 L894 514 L894 516 L896 518 L901 528 L901 530 L904 534 L905 538 L936 599 L936 601 L939 607 L941 609 L941 611 L958 644 L959 648 L961 650 L963 654 L963 656 L980 689 L980 691 L982 693 L988 705 L988 707 L1003 737 L1006 740 L1007 740 L1009 738 L1021 714 L1021 712 L1030 695 L1030 693 L1033 687 L1035 685 L1035 683 L1038 679 L1044 667 L1044 665 L1047 661 L1048 657 L1050 655 L1053 649 L1053 647 L1055 645 L1056 641 L1058 637 L1060 635 L1060 633 L1070 613 L1073 609 L1073 607 L1078 598 L1078 596 L1080 594 L1087 580 L1087 578 L1090 574 L1091 570 L1093 566 L1095 564 L1095 562 L1097 558 L1099 556 L1099 554 L1120 513 L1120 511 L1126 499 L1128 497 L1129 493 L1169 413 L1171 411 L1174 405 L1180 397 L1181 394 L1185 390 L1185 389 L1190 384 L1190 383 L1210 363 L1211 363 L1215 359 L1219 357 L1223 357 L1224 356 L1235 357 L1244 366 L1247 372 L1248 378 L1249 379 L1249 384 L1250 385 L1250 395 L1251 396 L1251 403 L1252 404 L1252 658 L1251 659 L1251 669 L1250 670 L1250 692 L1249 693 L1249 699 L1248 700 L1248 705 L1247 706 L1247 709 L1242 719 L1238 723 L1235 724 L1233 726 L1227 727 L1226 728 L1220 728 L1217 730 L1214 730 L1212 731 L1224 732 L1225 733 L1258 733 L1259 732 L1282 732 L1283 733 L1320 733 L1321 732 L1327 732 L1328 731 L1336 731 L1337 730 L1339 730 L1328 730 L1327 729 L1324 729 L1323 728 L1315 728 L1314 727 L1309 726 L1307 724 L1306 724 L1295 712 L1290 701 L1290 691 L1289 690 L1289 497 L1290 496 L1290 477 L1291 476 L1291 469 L1292 468 L1292 463 L1294 459 L1295 449 L1296 448 L1296 445 L1298 442 L1299 435 L1303 427 L1304 422 L1306 420 L1308 416 L1309 412 L1311 410 L1312 407 L1314 405 L1316 401 L1325 391 L1325 390 L1335 382 L1341 379 L1344 379 L1345 378 L1356 378 L1357 379 L1359 379 L1363 381 L1374 391 L1377 392 L1379 394 L1385 397 L1388 397 L1391 399 L1395 399 L1398 397 L1401 397 L1410 392 L1415 386 L1416 382 L1417 381 L1417 379 L1418 378 L1418 367 L1417 366 L1417 363 L1415 359 L1408 351 L1402 348 L1400 346 L1394 345 L1393 344 L1378 344 L1377 345 L1373 345 L1372 346 L1369 346 L1366 348 L1361 349 L1351 354 L1349 356 L1346 357 L1343 360 L1342 360 L1328 374 L1328 375 L1324 379 L1324 380 L1319 385 L1319 386 L1314 392 L1313 395 L1311 397 L1307 406 L1305 408 L1303 412 L1303 414 L1300 419 L1299 424 L1297 426 L1297 429 L1295 433 L1295 436 L1293 439 L1293 442 L1292 443 L1291 450 L1290 451 L1288 451 L1287 450 L1287 359 L1286 358 L1286 347 L1285 346 L1284 347 L1281 347 L1280 348 L1259 348 L1258 349 L1226 349 L1225 350 L1150 350 L1149 351 L1134 351 L1133 350 L1133 348 L1135 346 L1135 344 L1136 343 L1137 339 L1133 338 L1129 334 L1129 332 L1130 331 L1136 332 L1137 333 L1139 332 L1144 332 L1150 329 L1153 326 L1153 325 L1156 321 L1147 321 L1146 320 L1141 319 L1137 317 L1134 314 L1133 314 L1126 305 L1122 297 L1122 295 L1120 291 L1120 288 L1121 287 L1123 287 L1124 288 L1125 291 L1127 293 L1127 294 L1129 296 L1129 297 L1131 299 L1132 302 L1135 305 L1135 306 L1143 313 L1145 313 L1146 314 L1156 314 L1160 312 L1165 307 L1166 305 L1166 302 L1163 302 L1162 301 L1162 299 L1168 293 L1169 289 L1170 288 L1170 279 L1169 278 L1169 273 L1165 277 L1157 281 L1153 281 L1152 282 L1145 282 L1144 281 L1140 281 L1139 280 L1137 280 L1131 277 L1128 274 L1127 274 L1117 263 L1117 260 L1118 259 L1120 259 L1133 271 L1141 275 L1154 275 L1155 274 L1158 274 L1162 271 L1163 271 L1166 268 L1166 267 L1161 261 L1159 257 L1155 253 L1153 252 L1151 252 L1150 251 L1145 251 L1144 252 L1139 252 L1138 253 L1130 253 L1129 252 L1125 252 L1124 251 L1122 251 L1116 248 L1110 243 L1110 240 L1111 239 L1113 239 L1122 244 L1125 244 L1126 245 L1143 245 L1144 244 L1152 244 L1148 236 L1145 233 L1145 232 L1138 226 L1134 225 L1133 224 L1125 224 L1124 225 L1121 225 L1120 226 L1117 226 L1116 227 L1100 227 L1099 226 L1095 226 L1094 225 L1088 224 L1087 223 L1084 223 L1083 222 L1074 221 L1070 218 L1070 216 L1071 215 L1087 215 L1095 219 L1098 219 L1099 220 L1105 220 L1106 221 L1107 220 L1116 220 L1117 219 L1121 219 L1122 218 L1134 218 L1133 216 L1131 215 L1130 213 L1126 209 L1125 209 L1124 207 L1121 204 L1120 204 L1119 202 L1110 194 L1109 194 L1106 191 L1105 191 L1100 187 L1097 186 L1095 184 L1089 181 L1087 181 L1082 178 L1080 178 L1077 176 L1075 176 L1074 175 L1072 175 L1068 173 L1065 173 L1064 172 L1059 172 L1058 171 L1054 171 L1052 170 L1052 171 L1058 174 L1060 174 L1065 177 L1067 177 L1070 179 L1072 179 L1073 180 L1077 181 L1078 182 L1078 184 L1077 185 L1071 185 L1070 184 L1067 184 L1066 183 L1064 183 L1063 182 L1061 182 L1057 180 L1050 174 L1049 174 L1047 172 L1047 171 L1043 169 L1041 169 L1042 173 L1046 178 L1047 178 L1051 182 L1061 187 L1063 187 L1067 189 L1070 189 L1071 190 L1074 190 L1075 191 L1082 191 L1083 192 L1087 192 L1088 191 L1094 191 L1096 193 L1096 195 L1093 197 L1089 197 L1088 198 L1076 198 L1075 197 L1070 197 L1069 196 L1061 194 L1051 189 L1045 184 L1043 184 L1045 188 L1052 195 L1059 199 L1061 199 L1067 202 L1071 202 L1072 203 L1076 203 L1077 204 L1098 204 L1099 203 L1103 203 L1104 202 L1110 202 L1111 203 L1111 205 L1106 208 L1103 208 L1102 209 L1070 209 L1069 208 L1065 208 L1064 207 L1059 206 L1053 203 L1047 198 L1044 197 L1046 202 L1048 204 L1050 208 L1055 213 L1055 214 L1064 222 L1085 234 L1097 247 L1097 248 L1099 250 L1103 257 L1103 260 L1102 261 L1100 261 L1098 259 L1095 258 L1091 255 L1089 255 L1085 253 L1081 253 L1080 252 L1068 252 L1067 253 L1064 253 L1063 254 L1059 255 L1052 262 L1050 266 L1049 271 L1048 272 L1048 297 L1050 297 L1051 296 L1052 292 L1053 291 L1053 288 L1055 284 L1057 282 L1059 282 L1063 285 L1074 290 L1083 290 L1095 284 L1103 284 L1107 288 L1107 299 L1106 300 L1106 303 L1105 304 L1105 307 L1104 308 L1102 316 L1095 330 L1093 332 L1092 335 L1090 337 L1086 344 L1083 347 L1083 348 L1079 353 L1076 360 L1074 362 L1070 369 L1062 378 L1062 379 L1057 384 L1051 387 L1049 387 L1048 388 L1038 389 L1037 388 L1033 388 L1032 387 L1030 387 L1024 384 L1020 380 L1018 376 L1018 374 L1021 371 L1025 369 L1027 369 L1028 368 L1034 368 L1035 367 L1046 367 L1047 368 L1049 368 L1051 367 L1053 364 L1053 362 L1051 360 L1037 360 L1034 358 L1034 356 L1037 353 L1039 352 L1042 352 L1043 351 L1051 351 L1055 353 L1063 353 L1064 352 L1064 349 L1062 346 L1055 346 L1051 343 L1047 342 L1045 340 L1045 338 L1053 331 L1055 325 L1051 321 L1049 320 L1046 320 L1043 322 L1037 322 L1032 319 L1032 276 L1031 275 L1031 270 L1030 269 L1030 266 L1027 262 L1027 261 L1023 257 L1016 253 L1014 253 L1013 252 L1009 252 L1008 251 L997 251 L996 252 L991 252 L990 253 L987 253 L986 254 L984 254 L980 256 L976 256 L975 255 L975 252 L979 247 L979 246 L991 234 L992 234 L995 231 L1010 224 L1012 222 L1016 220 L1028 208 L1028 207 L1032 202 L1033 198 L1034 197 L1034 196 L1032 197 L1029 200 L1028 200 L1023 204 L1019 205 L1016 207 L1013 207 L1012 208 L1009 208 L1008 209 L1002 209 L999 207 L999 204 L1000 203 L1009 202 L1010 201 L1012 201 L1013 200 L1015 200 L1016 199 L1018 199 L1022 197 L1031 189 L1031 188 L1034 184 L1032 184 L1024 190 L1016 194 L1014 194 L1010 196 L1007 196 L1006 197 L1002 197 L1001 198 L988 198 L987 197 L984 197 L982 195 L982 192 L983 191 L1001 191 L1002 190 L1010 189 L1011 188 L1016 187 L1022 184 L1024 182 L1025 182 L1032 175 L1034 171 L1034 169 L1031 169 L1029 171 L1027 171 L1026 169 L1025 170 L1021 170 L1020 171 L1016 171 L1015 172 L1010 172 L1009 173 L1002 174 L1001 175 L999 175 L998 176 L990 178 L987 180 L985 180 L975 185 L973 187 L968 189 L966 191 L962 193 L959 196 L958 196 L955 199 L954 199 L950 203 L949 203 L935 217 L937 217 L938 218 L947 218 L948 219 L954 219 L955 220 L978 220 L979 219 L984 219 L985 218 L988 218 L991 216 L993 216 L994 217 L994 223 L989 226 L986 226 L985 227 L977 227 L976 228 L964 228 L963 227 L955 227 L954 226 L950 226 L949 225 L946 225 L945 224 L936 223 L935 224 L932 224 L928 226 L921 233 L921 234 L917 239 L915 244 L927 244 L928 245 L945 245 L946 244 L952 243 L961 238 L963 238 L964 239 L964 242 L957 248 L953 250 L947 251 L946 252 L942 252 L941 253 L933 253 L932 252 L926 252 L925 251 L916 251 L915 252 L913 252 L903 261 L903 262 L899 266 L900 268 L903 271 L909 274 L912 274 L913 275 L923 275 L924 274 L928 274 L929 273 L931 273 L935 271 L945 263 L946 263 L951 259 L953 259 L954 260 L954 262 L943 273 L942 273 L939 276 L931 280 L923 281 L922 282 L913 282 L912 281 L908 281 L902 278 L897 273 L896 270 L896 273 L895 274 L895 289 L897 293 L902 299 L910 303 L910 305 L909 306 L905 306 L900 303 L898 303 L900 309 L904 313 L908 314 L909 315 L917 315 L918 314 L920 314 L926 311 L933 304 L933 303 L935 301 L939 294 L943 290 L943 289 L944 288 L946 288 L947 289 L947 291 L945 295 L943 297 L942 300 L940 302 L939 305 L931 315 L930 315 L927 318 L923 320 L921 320 L920 321 L908 321 L910 325 L915 330 L919 332 L921 332 L922 333 L929 333 L930 332 L935 331 L936 332 L936 334 L932 337 L928 338 L927 339 L928 340 L928 342 L931 346 L931 347 L937 353 L947 358 L949 360 L949 363 L950 364 L950 369 L951 370 L951 380 L950 381 L950 384 L948 388 L945 391 L945 392 L939 398 L936 404 L936 407 L935 408 L935 415 L936 416 L936 419 L938 423 L943 428 L947 430 L952 435 L952 437 L953 438 L953 441 L951 445 L946 448 L944 448 L941 451 L941 452 L944 455 L946 456 L947 455 L950 455 L952 453 L953 453 L959 446 L959 442 L960 441 L960 437 L959 436 L959 433 L957 429 L955 427 L955 426 L949 420 L947 419 L947 418 L944 414 L944 410 L945 408 L957 396 L959 392 L959 388 L960 387 L960 377 L959 376 L958 359 L957 358 L957 353 L956 352 L956 349 L955 348 L955 345 L954 344 L954 339 L953 338 L949 338 L944 333 L944 330 L945 329 L947 329 L948 330 L952 330 L952 321 L954 318 L956 318 L957 319 L957 323 L958 324 L958 327 L960 331 L961 338 L962 339 L963 344 L966 349 L966 351 L969 357 L971 359 L972 362 L974 364 L976 368 L980 372 L980 373 L988 381 L989 381 L993 385 L994 385 L999 389 L1009 394 L1011 394 L1012 395 L1014 395 L1015 396 L1017 396 L1021 398 L1029 399 L1033 401 L1033 404 L1032 405 L1018 405 L1017 404 L1014 404 L1013 403 L1010 403 L1007 401 L1005 401 L997 397 L995 395 L992 394 L986 389 L985 389 L972 376 L970 372 L967 369 L967 371 L968 372 L968 380 L969 381 L969 386 L970 387 L970 393 L971 394 L971 399 L972 400 L972 406 L973 407 L973 411 L974 412 L974 417 L975 418 L975 422 L976 423 L976 428 L977 429 L977 434 L978 435 L978 440 L979 441 L979 446 L980 447 L980 452 L981 453 L981 458 L982 459 L982 465 L983 466 L983 473 L984 474 L984 486 L983 487 L980 487 L977 483 L977 472 L976 471 L976 468 L971 475 L971 476 L968 479 L968 480 L948 500 L947 500 L938 508 L936 509 L934 509 L933 508 L926 494 L926 492 L924 488 L922 486 L920 482 L920 480 L907 455 L907 453 L889 418 L889 416 L886 412 L886 410 L882 403 L882 401 L878 394 L877 389 L874 384 L873 376 L872 375 L872 367 L873 366 L873 363 L877 358 L881 357 L882 356 L888 356 L889 355 L897 355 L898 354 L905 353 L905 352 L886 352 L885 351 L853 351 L852 350 L812 350 L811 351 L783 351 Z" fill="#000"/>
<path d="M950 141 L946 141 L944 142 L937 149 L934 155 L933 160 L932 161 L932 165 L929 169 L929 170 L924 175 L922 175 L921 174 L921 172 L922 171 L922 158 L920 155 L917 155 L914 158 L913 162 L912 163 L912 166 L911 167 L911 175 L910 176 L910 184 L911 185 L911 190 L912 191 L912 194 L909 198 L908 202 L907 203 L905 203 L904 202 L904 196 L903 195 L903 191 L902 190 L902 187 L899 181 L896 178 L894 178 L892 181 L892 183 L891 184 L891 192 L892 193 L893 202 L894 203 L895 209 L897 212 L897 214 L901 219 L901 231 L900 232 L900 238 L899 239 L897 239 L896 238 L893 226 L891 224 L888 218 L885 215 L883 214 L881 214 L879 217 L879 222 L880 223 L880 228 L881 229 L882 234 L886 242 L888 244 L888 245 L897 254 L899 254 L900 252 L907 246 L907 241 L906 240 L906 231 L907 230 L907 226 L908 225 L908 222 L909 221 L910 214 L911 213 L912 207 L914 204 L914 202 L918 194 L920 192 L920 191 L922 189 L926 182 L937 169 L937 168 L946 158 L947 155 L949 153 L949 151 L951 147 L951 143 Z" fill="#000"/>
<path d="M1119 140 L1117 142 L1117 148 L1122 158 L1124 160 L1126 164 L1132 170 L1132 171 L1139 179 L1139 180 L1145 188 L1146 191 L1148 193 L1152 201 L1152 203 L1153 204 L1153 206 L1154 207 L1154 209 L1156 213 L1156 216 L1157 217 L1157 220 L1158 221 L1159 229 L1160 230 L1160 243 L1161 244 L1162 248 L1168 254 L1170 253 L1175 248 L1176 248 L1176 247 L1181 241 L1185 233 L1185 231 L1187 227 L1187 224 L1188 223 L1188 216 L1186 214 L1182 215 L1176 222 L1174 226 L1174 228 L1173 229 L1171 237 L1170 238 L1168 238 L1166 235 L1166 225 L1165 224 L1165 219 L1169 215 L1172 209 L1173 204 L1174 203 L1174 200 L1175 199 L1175 196 L1176 195 L1176 182 L1173 178 L1171 178 L1168 181 L1165 187 L1165 190 L1164 191 L1164 197 L1163 198 L1163 202 L1162 203 L1160 203 L1159 202 L1159 200 L1157 196 L1155 194 L1155 191 L1157 187 L1157 170 L1156 169 L1156 164 L1155 163 L1155 161 L1153 157 L1149 154 L1146 156 L1146 173 L1145 174 L1143 174 L1137 167 L1137 165 L1136 164 L1136 160 L1135 159 L1135 157 L1134 156 L1134 154 L1132 150 L1127 144 L1126 144 L1123 141 Z" fill="#000"/>
<path d="M928 215 L930 214 L930 213 L938 204 L938 203 L953 188 L954 188 L960 183 L972 177 L974 175 L976 175 L984 171 L986 171 L987 170 L989 170 L990 169 L992 169 L993 168 L995 168 L999 166 L1002 166 L1003 165 L1006 165 L1007 164 L1010 164 L1011 163 L1023 162 L1024 161 L1050 161 L1051 162 L1057 162 L1058 163 L1063 163 L1064 164 L1067 164 L1068 165 L1075 166 L1081 169 L1083 169 L1086 171 L1088 171 L1096 175 L1098 177 L1101 178 L1103 180 L1104 180 L1106 182 L1113 186 L1116 189 L1117 189 L1133 205 L1133 206 L1137 210 L1137 207 L1133 199 L1133 197 L1130 191 L1129 186 L1126 182 L1123 175 L1116 167 L1116 166 L1103 153 L1102 153 L1096 148 L1093 147 L1091 145 L1081 140 L1079 140 L1076 138 L1074 138 L1073 137 L1071 137 L1067 135 L1060 134 L1059 133 L1055 133 L1054 132 L1048 132 L1047 131 L1019 131 L1018 132 L1013 132 L1012 133 L1008 133 L1007 134 L999 135 L998 136 L990 138 L987 140 L985 140 L975 145 L973 147 L966 151 L962 155 L961 155 L951 165 L951 166 L947 170 L947 171 L942 177 L936 189 L936 191 L935 192 L935 194 L934 195 L934 197 L933 198 L933 200 L932 201 L932 203 L931 204 L931 206 L930 207 Z" fill="#000"/>
</svg>
